/* XPM */ 
static const char * scroll_xpm[] = {
"64 64 3 1",
" 	c None",
"!	c black",
"#	c white",
"                                                                ",
"                                                                ",
"                                                                ",
"                                                                ",
"                                ##                              ",
"                              ######                            ",
"                              ##!!##                            ",
"                            ###!!!!###                          ",
"                            ##!!!!!!##                          ",
"                          ###!!!##!!!###                        ",
"                          ##!!!####!!!##                        ",
"                        ###!!!######!!!###                      ",
"                        ##!!!########!!!##                      ",
"                       ##!!!##########!!!##                     ",
"                       #!!!############!!!#                     ",
"                      ##!!##############!!##                    ",
"                      ##!!!!!!!!##!!!!!!!!##                    ",
"                      ##!!!!!!!!##!!!!!!!!##                    ",
"                      ########!!##!!########                    ",
"                       #######!!##!!#######                     ",
"                            ##!!##!!##                          ",
"                            ##!!##!!##                          ",
"              ####          ##!!##!!##          #####           ",
"             ######         ##!!##!!##         ######           ",
"           ###!!!!#         ##!!##!!##        ##!!!!###         ",
"           ##!!!!!##        ##!!##!!##        ##!!!!!##         ",
"           #!!!#!!##        ##!!##!!##        ##!!#!!!###       ",
"         ##!!!##!!##        ##!!##!!##        ##!!##!!!##       ",
"       ###!!!###!!############!!##!!############!!###!!!###     ",
"       ##!!!####!!############!!##!!############!!####!!!##     ",
"     ###!!!#####!!!!!!!!!!!!!!!!##!!!!!!!!!!!!!!!!#####!!!###   ",
"     ##!!!######!!!!!!!!!!!!!!!!##!!!!!!!!!!!!!!!!######!!!##   ",
"    ##!!!################################################!!!##  ",
"    ##!!!################################################!!!##  ",
"     ##!!!######!!!!!!!!!!!!!!!!##!!!!!!!!!!!!!!!!######!!!##   ",
"      ##!!!#####!!!!!!!!!!!!!!!!##!!!!!!!!!!!!!!!!#####!!!###   ",
"       ##!!!####!!############!!##!!############!!####!!!##     ",
"       ###!!!###!!############!!##!!############!!###!!!###     ",
"         ##!!!##!!##        ##!!##!!##        ##!!##!!!##       ",
"         ###!!!#!!##        ##!!##!!##        ##!!#!!!###       ",
"           ##!!!!!##        ##!!##!!##        ##!!!!!##         ",
"           ###!!!!##        ##!!##!!##        ##!!!!###         ",
"             ######         ##!!##!!##         ######           ",
"              ####          ##!!##!!##          ####            ",
"                            ##!!##!!##                          ",
"                            ##!!##!!##                          ",
"                        ######!!##!!######                      ",
"                       #######!!##!!#######                     ",
"                       #!!!!!!!!##!!!!!!!!##                    ",
"                      ##!!!!!!!!##!!!!!!!!##                    ",
"                      ##!!##############!!##                    ",
"                      ##!!!############!!!##                    ",
"                       ##!!!##########!!!##                     ",
"                        ##!!!########!!!##                      ",
"                        ###!!!######!!!###                      ",
"                          ##!!!####!!!##                        ",
"                          ###!!!##!!!###                        ",
"                            ##!!!!!!##                          ",
"                            ###!!!!###                          ",
"                              ##!!##                            ",
"                              ######                            ",
"                                ##                              ",
"                                                                ",
"                                                                "};
