/* XPM */ 
static const char * arrow_xpm[] = {
"32 32 3 1",
" 	c None",
"!	c black",
"#	c white",
"                                ",
"      !!                        ",
"      !!!                       ",
"      !!!!                      ",
"      !!#!!                     ",
"      !!##!!                    ",
"      !!###!!                   ",
"      !!####!!                  ",
"      !!#####!!                 ",
"      !!######!!                ",
"      !!#######!!               ",
"      !!########!!              ",
"      !!#########!!             ",
"      !!##########!!            ",
"      !!###########!!           ",
"      !!############!!          ",
"      !!#############!!         ",
"      !!#######!!!!!!!!!        ",
"      !!###!!##!!!!!!!!!        ",
"      !!##!!!##!!               ",
"      !!#!! !!##!!              ",
"      !!!!  !!##!!              ",
"      !!!    !!##!!             ",
"      !!     !!##!!             ",
"      !       !!##!!            ",
"              !!##!!            ",
"               !!##!!           ",
"               !!##!!           ",
"                !!##!!          ",
"                !!!!!           ",
"                 !!!            ",
"                                "};
