/* XPM */ 
static const char * hand_xpm[] = {
"32 32 3 1",
" 	c None",
"!	c black",
"#	c white",
"                                ",
"       !!                       ",
"      !##!                      ",
"      !##!                      ",
"      !##!                      ",
"      !##!                      ",
"      !##!!!                    ",
"      !##!##!!!                 ",
"      !##!##!##!                ",
"      !##!##!##!!!              ",
"!!!   !##!##!##!##!             ",
"!##!  !##!##!##!##!             ",
" !##! !########!##!             ",
" !###!!###########!             ",
"  !###############!             ",
"  !###############!             ",
"   !##############!             ",
"   !#############!              ",
"    !############!              ",
"    !############!              ",
"     !##########!               ",
"      !#########!               ",
"       !#######!                ",
"       !#######!                ",
"       #!!!!!!!!                ",
"      #!!#######!               ",
"      #!!#######!               ",
"      #!!#######!               ",
"      #!!#######!               ",
"      #!!#######!               ",
"                                ",
"                                "};
